<?xml version="1.0" standalone="no"?>
<!DOCTYPE svg PUBLIC "-//W3C//DTD SVG 20010904//EN"
 "http://www.w3.org/TR/2001/REC-SVG-20010904/DTD/svg10.dtd">
<svg version="1.0" xmlns="http://www.w3.org/2000/svg"
 width="512.000000pt" height="512.000000pt" viewBox="0 0 512.000000 512.000000"
 preserveAspectRatio="xMidYMid meet">
<metadata>
Created by potrace 1.11, written by Peter Selinger 2001-2013
</metadata>
<g transform="translate(0.000000,512.000000) scale(0.100000,-0.100000)"
fill="#000000" stroke="none">
<path d="M2608 5016 c-1 -2 -70 -6 -153 -10 -82 -3 -167 -8 -187 -10 -64 -8
-122 -17 -168 -26 -69 -14 -82 -17 -130 -30 -25 -7 -52 -13 -60 -15 -88 -17
-345 -118 -480 -188 -119 -62 -310 -184 -377 -242 -6 -5 -31 -26 -54 -45 -126
-102 -243 -221 -363 -370 -20 -25 -40 -50 -45 -56 -5 -6 -34 -49 -65 -95 -30
-46 -60 -89 -66 -96 -5 -7 -10 -15 -10 -19 0 -4 -13 -29 -30 -55 -16 -27 -26
-49 -22 -49 4 0 2 -4 -3 -8 -11 -7 -43 -71 -85 -167 -12 -27 -27 -63 -35 -80
-15 -35 -73 -211 -80 -243 -3 -12 -7 -30 -10 -39 -11 -43 -27 -110 -31 -133
-20 -108 -25 -143 -30 -195 -3 -33 -7 -73 -10 -90 -5 -41 -6 -365 0 -390 2
-11 7 -49 11 -85 14 -128 19 -159 40 -245 8 -33 17 -71 19 -85 2 -14 5 -26 7
-27 1 -2 2 -6 3 -10 14 -54 30 -106 44 -143 9 -25 17 -47 18 -50 0 -3 4 -14 9
-25 4 -11 19 -47 32 -80 33 -80 131 -276 149 -296 8 -8 14 -19 14 -23 0 -21
211 -310 269 -367 9 -9 35 -36 57 -60 55 -59 157 -154 224 -210 71 -58 274
-199 289 -199 6 0 11 -3 11 -7 0 -5 10 -13 23 -19 12 -6 67 -34 122 -62 199
-99 457 -190 620 -218 17 -2 57 -9 90 -15 33 -6 83 -13 110 -15 28 -2 70 -6
95 -9 119 -12 412 -3 525 16 33 5 74 12 90 14 17 3 41 7 55 10 14 3 35 7 47 9
196 38 459 139 678 261 248 139 480 331 665 550 23 28 51 61 62 74 37 44 168
239 168 250 0 6 4 11 8 11 4 0 15 15 24 32 8 18 36 74 61 123 60 119 87 181
87 197 0 8 4 18 8 23 15 17 78 214 98 308 51 236 58 305 58 562 0 225 -5 304
-25 409 -6 28 -12 62 -14 76 -19 114 -86 338 -136 447 -10 24 -19 45 -19 48 0
17 -127 258 -161 307 -11 14 -19 29 -19 32 0 3 -12 24 -27 45 -16 21 -35 49
-43 61 -81 120 -236 291 -390 430 -53 47 -249 193 -303 226 -115 69 -147 86
-237 130 -147 71 -367 152 -457 169 -15 2 -44 9 -63 15 -70 20 -264 48 -390
56 -47 3 -90 7 -97 9 -6 2 -13 2 -15 1z m156 -370 c47 -5 100 -12 161 -22 95
-15 328 -80 378 -106 10 -5 27 -11 38 -13 32 -6 240 -111 319 -162 94 -59 215
-147 258 -187 l32 -31 -1392 -2 -1393 -2 35 32 c20 18 51 43 69 57 19 14 39
30 45 35 17 15 136 95 142 95 3 0 24 13 47 29 77 52 351 173 447 196 8 3 40
11 70 20 30 9 66 17 80 20 14 2 36 7 50 10 14 3 43 8 65 11 22 3 46 7 53 10 7
2 55 7 105 10 51 4 93 7 95 9 4 4 244 -4 296 -9z m-1687 -659 c17 -22 115
-136 138 -161 12 -13 140 -160 170 -195 11 -13 27 -31 35 -40 9 -9 47 -52 85
-96 39 -44 72 -82 75 -85 3 -3 30 -34 60 -69 30 -35 64 -74 75 -86 11 -11 45
-50 76 -85 75 -87 150 -172 163 -186 6 -6 22 -24 35 -40 23 -28 135 -157 156
-180 10 -11 78 -89 144 -164 17 -19 31 -37 31 -40 0 -3 -16 -23 -36 -45 -19
-22 -56 -64 -82 -94 -26 -30 -52 -59 -57 -65 -6 -6 -39 -45 -74 -86 -35 -41
-68 -79 -75 -85 -6 -5 -36 -39 -66 -75 -48 -57 -85 -99 -140 -159 -8 -10 -58
-66 -110 -126 -52 -61 -97 -112 -100 -115 -3 -3 -34 -39 -70 -80 -36 -41 -67
-77 -70 -80 -3 -3 -55 -61 -115 -130 -60 -69 -114 -130 -119 -137 -12 -12 -93
-105 -133 -151 l-23 -27 -31 35 c-118 134 -170 203 -250 335 -91 149 -205 406
-225 510 -1 6 -10 39 -19 75 -20 76 -21 81 -29 140 -3 25 -8 56 -11 70 -23
109 -23 454 -1 580 3 14 7 39 10 55 13 84 19 112 45 207 59 214 143 402 260
583 35 55 132 187 150 206 9 8 34 37 56 62 22 26 43 47 47 47 4 0 15 -10 25
-23z m3046 -32 c27 -30 72 -85 100 -122 29 -37 55 -69 60 -71 4 -2 7 -8 7 -14
0 -6 11 -26 25 -44 14 -18 25 -37 25 -43 0 -6 3 -11 8 -11 4 0 12 -10 18 -23
6 -12 31 -60 55 -107 45 -86 85 -175 104 -230 1 -3 4 -12 8 -20 26 -67 80
-275 93 -355 12 -76 13 -90 20 -175 11 -129 7 -404 -7 -440 -1 -3 -1 -8 0 -12
1 -7 -22 -132 -34 -185 -3 -13 -7 -32 -9 -43 -11 -49 -60 -202 -89 -275 -86
-221 -252 -484 -410 -650 l-28 -30 -42 46 c-51 56 -84 94 -162 184 -33 38 -67
76 -75 85 -8 9 -40 45 -70 80 -30 35 -77 89 -104 120 -27 30 -61 69 -75 85
-42 49 -223 257 -256 294 -16 19 -37 42 -45 51 -21 23 -123 140 -146 169 -10
13 -30 35 -44 50 -14 14 -40 44 -59 66 -41 49 -127 146 -163 187 -16 17 -28
33 -28 37 0 6 20 30 78 96 15 17 43 49 62 71 19 22 60 69 91 104 145 166 437
501 483 554 28 32 56 63 61 70 6 6 28 32 50 57 22 25 52 58 66 75 26 30 149
171 204 233 49 56 68 77 119 135 26 31 51 56 55 56 3 0 28 -25 54 -55z m-753
-189 c0 -3 -6 -11 -13 -18 -7 -7 -55 -62 -107 -123 -52 -60 -99 -115 -105
-121 -5 -6 -30 -35 -55 -64 -25 -29 -52 -60 -60 -69 -9 -9 -45 -50 -80 -91
-36 -41 -67 -77 -70 -80 -3 -3 -45 -52 -95 -110 -49 -58 -94 -110 -100 -116
-5 -6 -37 -41 -70 -79 l-59 -67 -36 40 c-30 34 -62 71 -137 159 -11 12 -42 48
-70 80 -28 32 -88 101 -134 153 -45 52 -96 111 -113 130 -17 19 -49 55 -70 80
-79 92 -151 174 -166 190 -8 8 -32 37 -54 63 l-38 47 816 0 c449 0 816 -2 816
-4z m-711 -1587 c9 -9 30 -34 48 -55 17 -22 41 -50 53 -64 56 -65 126 -144
135 -154 6 -6 39 -45 75 -86 35 -41 71 -82 80 -91 8 -9 26 -29 39 -45 85 -101
210 -245 245 -281 22 -24 37 -45 35 -48 -4 -4 -845 -7 -1507 -5 l-123 0 35 38
c19 20 44 48 56 62 65 77 106 124 116 134 5 6 68 79 139 161 71 83 144 166
161 185 17 19 82 94 144 165 62 72 125 145 142 163 l29 32 41 -47 c22 -27 48
-55 57 -64z m1285 -1188 c12 -1 -123 -107 -221 -173 -108 -73 -185 -115 -368
-198 -132 -61 -437 -134 -612 -147 -147 -11 -420 -5 -463 11 -8 3 -37 7 -65
10 -27 3 -57 7 -65 10 -8 3 -26 8 -40 10 -178 34 -418 128 -604 235 -99 57
-314 213 -331 240 -4 7 2711 9 2769 2z"/>
</g>
</svg>
