<?xml version="1.0" standalone="no"?>
<!DOCTYPE svg PUBLIC "-//W3C//DTD SVG 20010904//EN"
 "http://www.w3.org/TR/2001/REC-SVG-20010904/DTD/svg10.dtd">
<svg version="1.0" xmlns="http://www.w3.org/2000/svg"
 width="1200.000000pt" height="1200.000000pt" viewBox="0 0 1200.000000 1200.000000"
 preserveAspectRatio="xMidYMid meet">
<metadata>
Created by potrace 1.11, written by Peter Selinger 2001-2013
</metadata>
<g transform="translate(0.000000,1200.000000) scale(0.100000,-0.100000)"
fill="#000000" stroke="none">
<path d="M5788 11745 c-2 -2 -59 -6 -128 -9 -69 -3 -145 -8 -170 -11 -25 -2
-72 -7 -105 -10 -33 -4 -71 -8 -85 -10 -14 -2 -49 -7 -79 -10 -30 -4 -61 -8
-70 -10 -15 -2 -68 -11 -136 -21 -16 -3 -37 -7 -45 -9 -8 -2 -33 -7 -55 -10
-136 -19 -543 -127 -762 -201 -1012 -344 -1901 -959 -2601 -1803 -131 -157
-345 -458 -453 -636 -30 -49 -59 -99 -66 -110 -7 -11 -15 -27 -19 -35 -4 -8
-18 -31 -30 -52 -28 -43 -178 -341 -228 -451 -90 -196 -258 -657 -291 -797 -2
-8 -17 -69 -34 -135 -28 -112 -68 -288 -77 -345 -3 -14 -11 -61 -19 -105 -15
-86 -18 -106 -34 -230 -25 -194 -25 -201 -37 -390 -14 -225 -8 -762 11 -876 2
-13 6 -51 10 -84 9 -86 16 -145 21 -180 2 -16 6 -48 9 -70 3 -22 7 -47 10 -55
2 -8 7 -35 10 -60 7 -52 50 -266 71 -355 8 -33 17 -71 20 -85 17 -81 109 -378
172 -555 35 -99 152 -386 173 -425 4 -8 46 -92 92 -186 99 -199 225 -417 346
-598 47 -70 91 -136 96 -145 6 -9 12 -18 15 -21 3 -3 32 -41 65 -85 32 -44 64
-85 69 -91 6 -7 20 -24 31 -40 11 -15 60 -75 109 -133 267 -320 567 -608 901
-864 166 -128 167 -129 187 -142 9 -5 67 -44 129 -86 504 -335 1042 -585 1586
-739 59 -16 122 -34 138 -40 26 -8 115 -29 195 -46 14 -2 33 -7 42 -10 10 -3
28 -7 40 -10 13 -2 34 -6 48 -9 42 -9 263 -46 299 -51 19 -2 46 -6 60 -9 14
-2 51 -7 81 -10 30 -3 73 -8 96 -11 292 -38 901 -38 1214 0 30 4 75 9 100 12
25 3 56 7 70 9 14 2 45 7 70 10 126 16 453 82 600 121 253 68 579 178 763 258
217 93 495 229 579 282 21 13 40 24 42 24 15 0 321 192 451 283 100 70 255
186 265 196 3 4 21 18 42 33 20 15 42 33 50 40 7 7 29 26 48 42 473 387 937
936 1269 1499 97 166 321 606 321 633 0 2 9 23 19 47 156 344 326 948 385
1367 19 137 27 201 41 345 29 301 25 819 -9 1120 -4 33 -9 78 -12 100 -17 149
-59 391 -94 546 -17 74 -33 145 -36 159 -7 33 -27 105 -81 280 -102 334 -199
574 -362 900 -93 185 -133 256 -274 484 -71 115 -289 421 -378 530 -55 67
-149 177 -182 213 -19 21 -45 49 -57 63 -29 34 -235 243 -301 306 -89 83 -203
184 -289 254 -30 25 -57 47 -60 50 -3 3 -70 54 -150 113 -80 59 -149 111 -155
115 -15 12 -235 155 -275 179 -309 188 -579 323 -891 446 -223 88 -538 192
-672 222 -12 2 -80 18 -152 35 -126 29 -298 63 -380 74 -22 4 -51 8 -65 11
-14 2 -43 7 -65 10 -22 2 -56 7 -75 10 -58 8 -158 17 -330 31 -82 6 -586 14
-592 9z m612 -848 c14 -3 59 -8 100 -11 41 -3 84 -8 95 -10 11 -2 47 -7 80
-10 33 -4 67 -9 75 -11 16 -5 50 -10 120 -20 25 -4 72 -13 105 -20 33 -8 71
-16 85 -19 64 -11 288 -71 405 -107 340 -107 682 -256 975 -427 52 -30 105
-60 117 -66 13 -6 23 -14 23 -18 0 -5 5 -8 10 -8 15 0 229 -144 355 -240 121
-91 316 -252 311 -258 -2 -1 -1331 -5 -2952 -8 -1622 -3 -3090 -7 -3262 -7
-171 -1 -312 0 -312 3 0 3 10 14 23 25 439 378 859 640 1365 851 316 132 636
227 1008 298 60 12 210 33 285 41 30 3 63 8 74 10 11 2 70 7 130 11 61 3 112
8 114 10 6 6 641 -3 671 -9z m3212 -1569 c41 -46 106 -119 143 -163 36 -44 74
-89 84 -100 53 -63 199 -267 266 -370 43 -66 86 -132 96 -147 11 -15 19 -29
19 -32 0 -2 21 -40 47 -83 94 -158 235 -456 320 -673 58 -149 157 -465 178
-570 2 -8 10 -42 19 -75 34 -130 87 -450 101 -610 2 -16 7 -70 12 -120 16
-174 9 -703 -11 -890 -2 -16 -7 -57 -10 -90 -11 -96 -45 -302 -67 -405 -11
-52 -22 -102 -24 -110 -42 -195 -175 -613 -245 -765 -10 -22 -30 -69 -45 -105
-31 -75 -158 -333 -200 -406 -205 -358 -441 -682 -697 -957 -70 -76 -64 -76
-127 -1 -28 33 -223 256 -231 264 -5 5 -113 129 -160 184 -14 16 -29 34 -35
40 -5 6 -39 45 -75 86 -36 41 -67 77 -70 80 -8 8 -131 148 -205 235 -38 44
-74 85 -80 91 -22 24 -73 82 -125 144 -30 36 -58 67 -61 70 -7 6 -70 78 -141
160 -26 30 -61 71 -78 90 -18 19 -53 60 -79 90 -25 30 -50 60 -56 66 -36 40
-166 188 -385 439 -139 160 -267 306 -284 325 -17 19 -60 69 -96 110 -36 41
-67 77 -70 80 -3 3 -34 39 -70 80 -36 41 -67 77 -70 80 -3 3 -50 57 -105 120
-54 63 -102 117 -105 120 -5 5 -111 126 -151 174 -13 16 -35 41 -49 56 -14 15
-45 51 -69 80 -25 29 -51 59 -59 67 -13 12 -11 18 14 45 54 59 69 75 84 94 9
11 38 44 64 74 27 30 72 82 101 115 29 33 102 116 162 185 143 163 730 837
802 919 31 36 63 72 71 81 8 9 58 65 110 125 118 137 151 174 170 195 8 9 30
34 49 55 19 22 57 67 86 100 29 33 200 229 380 435 343 393 433 496 450 514 6
6 37 43 70 81 33 39 64 75 70 81 8 9 69 79 138 158 10 12 44 50 75 85 31 35
59 68 60 72 7 18 20 7 94 -73z m-7085 6 c32 -37 69 -79 83 -94 14 -15 32 -36
41 -46 8 -11 71 -82 138 -159 205 -234 223 -254 377 -430 81 -93 151 -172 154
-175 3 -3 34 -39 70 -80 36 -41 70 -80 75 -86 25 -28 75 -85 135 -154 36 -41
70 -80 75 -86 6 -6 35 -39 65 -74 30 -35 60 -68 65 -74 6 -6 87 -99 180 -206
93 -107 174 -200 180 -206 5 -6 37 -41 70 -79 33 -38 78 -89 100 -114 22 -25
54 -61 70 -80 17 -19 37 -42 45 -51 8 -9 40 -45 70 -81 30 -35 57 -66 61 -69
3 -3 35 -39 70 -80 35 -41 71 -82 79 -91 24 -25 80 -89 145 -164 33 -39 76
-88 96 -110 20 -22 50 -56 65 -75 16 -19 36 -42 44 -50 8 -9 28 -32 45 -51 16
-19 94 -107 172 -197 79 -89 143 -166 143 -172 0 -7 -158 -194 -225 -266 -20
-22 -71 -81 -165 -189 -52 -60 -102 -116 -110 -125 -16 -17 -33 -37 -140 -160
-36 -41 -69 -80 -75 -86 -26 -29 -79 -89 -170 -194 -55 -63 -104 -120 -110
-126 -34 -37 -90 -101 -245 -279 -96 -110 -177 -202 -180 -205 -3 -3 -66 -75
-139 -160 -74 -85 -139 -159 -145 -165 -6 -5 -51 -57 -101 -115 -49 -58 -93
-107 -96 -110 -5 -4 -253 -288 -319 -364 -14 -16 -32 -36 -41 -45 -8 -9 -58
-65 -110 -126 -51 -60 -99 -114 -105 -120 -5 -5 -39 -44 -75 -85 -35 -41 -66
-77 -69 -80 -3 -3 -64 -72 -135 -154 -72 -82 -147 -168 -167 -190 -21 -23 -38
-44 -38 -48 0 -32 -69 32 -201 187 -19 22 -40 46 -47 53 -7 8 -25 30 -40 50
-15 21 -33 43 -39 50 -33 34 -188 250 -258 357 -43 66 -86 132 -96 147 -11 15
-19 30 -19 33 0 3 -12 24 -27 48 -45 72 -179 331 -231 447 -11 25 -29 65 -40
90 -141 319 -275 785 -332 1155 -16 104 -18 115 -25 180 -4 32 -8 67 -10 76
-26 135 -26 892 0 1028 1 9 6 47 9 85 4 38 9 72 10 75 2 3 7 31 10 61 4 30 9
69 12 85 23 138 40 217 66 320 16 66 32 129 34 139 2 10 8 33 13 50 5 17 24
78 41 136 34 111 102 304 126 357 8 17 14 34 14 37 0 3 16 40 35 82 19 41 35
78 35 80 0 7 143 294 180 359 174 314 432 676 636 895 23 25 59 64 80 88 20
23 41 42 45 42 4 0 34 -30 66 -66z m5366 -503 c13 -1 -13 -36 -90 -123 -60
-68 -185 -211 -277 -318 -93 -107 -176 -203 -185 -212 -9 -9 -21 -23 -28 -31
-11 -14 -108 -126 -218 -252 -143 -165 -276 -317 -325 -375 -30 -35 -60 -68
-65 -74 -11 -12 -194 -223 -231 -266 -40 -47 -169 -195 -179 -206 -5 -6 -64
-73 -130 -149 -66 -75 -132 -152 -148 -169 l-27 -31 -26 30 c-14 17 -40 46
-58 65 -17 19 -74 85 -126 145 -52 61 -99 115 -105 121 -5 6 -35 40 -65 75
-30 35 -75 86 -100 114 -25 28 -64 73 -87 100 -52 63 -75 90 -121 141 -20 22
-59 67 -87 99 -27 32 -54 63 -60 69 -5 6 -37 43 -70 81 -33 39 -62 72 -65 75
-3 3 -48 55 -100 115 -52 61 -97 112 -100 115 -3 3 -48 55 -100 115 -52 61
-97 112 -100 115 -3 3 -34 39 -70 80 -36 41 -67 77 -70 80 -3 3 -61 70 -129
150 -68 80 -129 150 -135 155 -6 6 -36 39 -66 75 -30 36 -61 69 -69 74 -13 8
-13 10 2 15 12 5 3728 6 3810 2z m-1689 -3695 c96 -111 139 -161 145 -166 3
-3 46 -52 96 -110 49 -58 94 -110 100 -116 5 -6 30 -35 55 -64 25 -29 54 -63
65 -75 11 -11 45 -50 75 -85 30 -36 57 -67 60 -70 3 -3 48 -54 100 -115 52
-60 100 -115 105 -121 6 -6 35 -39 65 -74 93 -107 211 -243 244 -280 17 -19
56 -64 86 -100 30 -36 69 -81 86 -100 33 -37 199 -228 377 -433 l59 -67 -1923
0 -1923 0 25 28 c37 40 220 250 334 382 54 63 119 138 144 166 54 61 151 173
203 234 55 65 204 236 209 240 3 3 41 46 83 95 43 50 92 106 109 125 18 20 70
81 117 135 47 55 87 102 91 105 3 3 36 41 74 85 38 44 81 94 96 110 15 17 61
71 104 120 91 105 162 187 263 302 l73 83 76 -88 c41 -48 98 -114 127 -146z
m-14 -2800 c1405 -3 2671 -5 2813 -5 296 -1 280 12 137 -107 -642 -533 -1415
-898 -2220 -1048 -174 -32 -213 -38 -325 -51 -33 -4 -71 -9 -85 -10 -212 -27
-876 -27 -1033 0 -12 2 -74 11 -137 19 -63 9 -126 18 -140 20 -14 3 -42 7 -62
10 -284 43 -805 199 -1086 327 -34 16 -65 29 -68 29 -15 0 -381 190 -456 237
-21 13 -40 23 -43 23 -3 0 -18 8 -33 19 -15 10 -87 58 -161 106 -189 125 -407
291 -543 415 l-28 25 458 -2 c251 -1 1607 -4 3012 -7z"/>
</g>
</svg>
